<svg width="71" height="62" viewBox="0 0 71 62" fill="none" xmlns="http://www.w3.org/2000/svg">
<path d="M70.87 2.98817L59.682 59.3966C59.682 59.3966 58.1175 63.3087 53.8145 61.431L27.9962 41.6368L18.608 37.0994L2.80425 31.7789C2.80425 31.7789 0.378926 30.9186 0.144027 29.0409C-0.0903823 27.1632 2.88255 26.1462 2.88255 26.1462L65.7062 1.50146C65.7062 1.50146 70.87 -0.767267 70.87 2.98817Z" fill="white"/>
<path d="M26.0121 58.7635C26.0121 58.7635 25.2585 58.693 24.3194 55.7196C23.3808 52.7467 18.6084 37.0995 18.6084 37.0995L56.5528 13.0028C56.5528 13.0028 58.7438 11.6727 58.6655 13.0028C58.6655 13.0028 59.0565 13.2372 57.883 14.3324C56.7094 15.4281 28.0748 41.1676 28.0748 41.1676" fill="#D2E5F1"/>
<path d="M37.8956 49.2263L27.6834 58.5371C27.6834 58.5371 26.8852 59.1429 26.0117 58.7632L27.9673 41.4683" fill="#B5CFE4"/>
</svg>
